<svg xmlns="http://www.w3.org/2000/svg" version="1.1" xmlns:xlink="http://www.w3.org/1999/xlink" xmlns:svgjs="http://svgjs.dev/svgjs" width="100%" height="100%" viewBox="0 0 1000 600"><rect width="1000" height="600" x="0" y="0" fill="#0f172a"/><g><rect width="333.3333333333333" height="333.3333333333333" rx="13.333333333333334" ry="13.333333333333334" y="327.61217599445956" fill="#4ade80" transform="matrix(0.40931274431603903,0,0,0.4093127443160389,0,97.68536837114654)" x="305.3899536132812"/><path d="M460.8098758682608 569.2788375092159L404.55987810343487 569.2788375092159L404.55987810343487 428.42597852287236Q415.5624818328974 423.73847870913687 429.88539793042247 421.4923850483886Q444.17576194590777 419.27884346968017 457.7499801565168 419.27884346968017L457.7499801565168 419.27884346968017Q497.8541452295871 419.27884346968017 518.6874777350781 438.61478020133904Q539.5533623226092 457.950716932998 539.5533623226092 494.9949862943243L539.5533623226092 494.9949862943243Q539.5533623226092 521.2319644184272 529.5924252184211 537.6382137665014Q519.6314881142332 554.0444631145756 501.82549923844635 561.6616503118958Q484.01951036265945 569.2788375092159 460.8098758682608 569.2788375092159L460.8098758682608 569.2788375092159ZM444.8593556687442 453.2632171192625L444.8593556687442 538.8100887199353L458.69399053567184 538.8100887199353Q476.4999794114588 538.8100887199353 486.72133317196534 528.0353495647515Q496.91013485043203 517.2606104095679 496.91013485043203 494.9949862943243L496.91013485043203 494.9949862943243Q496.91013485043203 473.41295590191714 487.04685399236365 462.50800841857415Q477.216125216335 451.635613017271 458.46612596139306 451.635613017271L458.46612596139306 451.635613017271Q455.17836567537023 451.635613017271 451.6627408150686 451.9611338376693Q448.147115954767 452.3192067401074 444.8593556687442 453.2632171192625L444.8593556687442 453.2632171192625Z " fill="#0f172a" transform="matrix(0.40931274431603903,0,0,0.4093127443160389,0,97.68536837114654)"/><path d="M764.8642178444146 535.2160904729143L722.056620277782 535.2160904729143L722.056620277782 428.0236861495234Q730.4298656351442 424.4563863523041 741.3299483488701 422.7470551994698Q752.2052581473375 421.062496961894 762.5355638101186 421.062496961894L762.5355638101186 421.062496961894Q793.0557954085511 421.062496961894 808.9104611739707 435.7776086254239Q824.7898998546486 450.4927202889539 824.7898998546486 478.6842978530904L824.7898998546486 478.6842978530904Q824.7898998546486 498.6512675514156 817.2093877855574 511.1368168416834Q809.6288757164663 523.6223661319513 796.0780910700843 529.4192283024328Q782.5273064237023 535.2160904729143 764.8642178444146 535.2160904729143L764.8642178444146 535.2160904729143ZM752.7254893677654 446.9254204917345L752.7254893677654 512.0286417909883L763.2539783526142 512.0286417909883Q776.8047629989961 512.0286417909883 784.5834583901551 503.8288068404354Q792.3373808660556 495.6289718898825 792.3373808660556 478.6842978530904L792.3373808660556 478.6842978530904Q792.3373808660556 462.25985503672615 784.8311875427398 453.9609284251394Q777.3497671346825 445.6867747288111 763.080567945805 445.6867747288111L763.080567945805 445.6867747288111Q760.5785035046996 445.6867747288111 757.9030286567851 445.9345038813958Q755.2275538088705 446.2070059492389 752.7254893677654 446.9254204917345L752.7254893677654 446.9254204917345ZM887.2176463059878 536.8263299647147L887.2176463059878 536.8263299647147Q872.4282158966824 536.8263299647147 861.6272248439905 530.9303761331994Q850.8262337912984 525.0591952169425 844.9550528750415 514.1591125032165Q839.0590990435261 503.28380270474906 839.0590990435261 488.4943722954437L839.0590990435261 488.4943722954437Q839.0590990435261 466.1987485628226 851.9905608084464 454.15911174720713Q864.9220225733667 442.11947493159175 886.8708254923692 442.11947493159175L886.8708254923692 442.11947493159175Q908.7948554961134 442.11947493159175 921.8254089220676 454.23343049298256Q934.8559623480216 466.37215896963187 934.8559623480216 488.84119310906226L934.8559623480216 488.84119310906226Q934.8559623480216 503.45721311155836 929.1334189233156 514.2582041642504Q923.435648413868 525.0591952169425 912.7337490222098 530.9303761331994Q902.0318496305517 536.8263299647147 887.2176463059878 536.8263299647147ZM887.2176463059878 512.9204667402931L887.2176463059878 512.9204667402931Q896.1358957990363 512.9204667402931 900.8675226134037 506.3308712815407Q905.5991494277711 499.71650290752973 905.5991494277711 488.84119310906226L905.5991494277711 488.84119310906226Q905.5991494277711 477.2474687680993 900.5207017997851 471.45060659761776Q895.4174812565407 465.6537444271363 886.8708254923692 465.6537444271363L886.8708254923692 465.6537444271363Q878.2993968129394 465.6537444271363 873.2209491849535 471.45060659761776Q868.1425015569675 477.2474687680993 868.1425015569675 488.667782702253L868.1425015569675 488.667782702253Q868.1425015569675 499.71650290752973 873.3200408459874 506.3308712815407Q878.4728072197487 512.9204667402931 887.2176463059878 512.9204667402931ZM1049.009555859042 524.3407806744468L1024.9302822278114 543.4159254234671L1013.856789107276 529.5183199634666Q1009.7692580896288 532.1937948113812 1004.220125071732 533.7049426421477Q998.6957649690936 535.2160904729143 990.8427508321593 535.2160904729143L990.8427508321593 535.2160904729143Q970.8757811338342 535.2160904729143 960.8922962846716 525.3069243695271Q950.9088114355089 515.4225311813984 950.9088114355089 496.6942072459966L950.9088114355089 496.6942072459966L950.9088114355089 443.9031248302014L979.447209813264 443.9031248302014L979.447209813264 495.08396775419624Q979.447209813264 503.1103922979398 983.7081512377206 507.2970149766209Q987.9938655774355 511.483637655302 995.1284651718743 511.483637655302L995.1284651718743 511.483637655302Q1002.4364751731223 511.483637655302 1006.548779106028 507.2970149766209Q1010.6610830389336 503.1103922979398 1010.6610830389336 495.08396775419624L1010.6610830389336 495.08396775419624L1010.6610830389336 443.9031248302014L1039.1994814166887 443.9031248302014L1039.1994814166887 512.9204667402931L1049.009555859042 524.3407806744468ZM1100.9088133255327 569.2788489533077L1100.9088133255327 569.2788489533077Q1086.813024543464 569.2788489533077 1076.4579459654246 565.0922262746267Q1066.1276403026436 560.9056035959455 1059.7114552507005 555.5546539001165L1059.7114552507005 555.5546539001165L1068.9765255573675 534.671086337228Q1076.111125151806 539.6752152194385 1083.9641392887406 542.5241004741623Q1091.8171534256749 545.3729857288861 1100.190398783037 545.3729857288861L1100.190398783037 545.3729857288861Q1110.1738836321997 545.3729857288861 1115.078920853376 541.5579567790821Q1119.983958074553 537.7181549140196 1119.983958074553 531.8222010825042L1119.983958074553 531.8222010825042L1119.983958074553 524.3407806744468Q1116.4166582773332 525.9510201662473 1111.883214785034 526.7437534545182Q1107.3249983774758 527.5364867427893 1102.519052817333 527.5364867427893L1102.519052817333 527.5364867427893Q1091.8171534256749 527.5364867427893 1082.0070789833217 523.2755453183327Q1072.197004540968 518.9898309786178 1065.954229895834 509.6999877566923Q1059.7114552507005 500.4349174500253 1059.7114552507005 485.2738933118429L1059.7114552507005 485.2738933118429Q1059.7114552507005 464.4150986642129 1071.924502473125 453.61410761152086Q1084.1375496955498 442.8131165588288 1104.3027027159428 442.8131165588288L1104.3027027159428 442.8131165588288Q1112.1309439376187 442.8131165588288 1120.9748746848913 444.42335605062925Q1129.794032516906 446.0335955424297 1137.300225840222 448.9815724581873Q1144.7816462482792 451.92954937394506 1148.8939501811851 456.01708039159223L1148.8939501811851 456.01708039159223L1148.8939501811851 531.4753802688856Q1148.8939501811851 543.9609295591534 1142.378673468208 552.4332665775495Q1135.8633967552305 560.9056035959455 1124.9880869567633 565.0922262746267Q1114.112777158296 569.2788489533077 1100.9088133255327 569.2788489533077ZM1106.9781775638571 504.00221724724463L1106.9781775638571 504.00221724724463Q1112.6759480733049 504.00221724724463 1116.5157499383672 500.33582578899143Q1120.35555180343 496.6942072459966 1120.35555180343 488.1227785665667L1120.35555180343 488.1227785665667L1120.35555180343 468.67604008866937Q1118.200308175943 467.7842151393645 1114.4595979719143 467.09057351212743Q1110.718887767886 466.37215896963187 1107.3249983774758 466.37215896963187L1107.3249983774758 466.37215896963187Q1098.7535696980458 466.37215896963187 1094.046715798937 471.3515149365839Q1089.3150889845697 476.3556438187944 1089.3150889845697 485.10048290503363L1089.3150889845697 485.10048290503363Q1089.3150889845697 491.8634887705954 1091.990563832484 496.0748843645349Q1094.6660386803987 500.261507043216 1098.6792509522702 502.1194756876011Q1102.692463224142 504.00221724724463 1106.9781775638571 504.00221724724463ZM1195.2688475450368 535.2160904729143L1166.7304491672817 535.2160904729143L1166.7304491672817 419.2788470632843L1195.2688475450368 419.2788470632843L1195.2688475450368 535.2160904729143ZM1300.6776019698182 526.1244305730565L1278.5553886440061 544.4811607795813L1267.3084851166618 530.9303761331994Q1258.9352397592997 536.1079154222191 1246.4496904690318 536.1079154222191L1246.4496904690318 536.1079154222191Q1229.8518372458584 536.1079154222191 1220.586766939191 527.4621679970138Q1211.321696632524 518.8164205718085 1211.321696632524 504.72063178974025L1211.321696632524 504.72063178974025Q1211.321696632524 491.8634887705954 1219.1499378541998 484.82798083719047Q1227.0029519911345 477.79247290378555 1241.9905657225072 477.79247290378555L1241.9905657225072 477.79247290378555L1263.93936864151 477.79247290378555L1263.93936864151 474.9188147338033Q1263.93936864151 469.76604836004196 1259.282060572918 467.1648922579028Q1254.6495254195847 464.58850907102214 1246.102869655413 464.58850907102214L1246.102869655413 464.58850907102214Q1239.488501281402 464.58850907102214 1233.8650495177299 466.0996569017887Q1228.266370669316 467.61080473255527 1223.0888313802966 470.6578733093468L1223.0888313802966 470.6578733093468L1216.1276421926668 449.9477161532676Q1222.915420973487 446.2070059492389 1231.288666330849 444.5224477116631Q1239.6619116882116 442.8131165588288 1248.059929960832 442.8131165588288L1248.059929960832 442.8131165588288Q1268.745314201653 442.8131165588288 1280.512448949425 451.6570473061019Q1292.2795836971973 460.4762051381165 1292.2795836971973 475.2904084626803L1292.2795836971973 475.2904084626803L1292.2795836971973 515.9427624018263L1300.6776019698182 526.1244305730565ZM1250.908815215556 513.9857020964073L1250.908815215556 513.9857020964073Q1257.6965939963761 513.9857020964073 1260.8923000647187 509.6256690109169Q1264.1127790483192 505.240863010168 1264.1127790483192 500.78173826364383L1264.1127790483192 500.78173826364383L1264.1127790483192 495.8023822966918L1250.908815215556 495.8023822966918Q1245.3844551129173 495.8023822966918 1242.609888603969 498.1062634157293Q1239.860095010279 500.4349174500253 1239.860095010279 504.54722138293096L1239.860095010279 504.54722138293096Q1239.860095010279 509.0063461294552 1242.981482332846 511.483637655302Q1246.102869655413 513.9857020964073 1250.908815215556 513.9857020964073ZM1351.6850344870036 538.7833902701336L1351.6850344870036 538.7833902701336Q1338.1342498406216 538.7833902701336 1326.8130275675016 534.4976759304187Q1315.4670323791233 530.2119615907037 1309.5958514628664 525.2326056237516L1309.5958514628664 525.2326056237516L1318.6875113627243 506.1326879594729Q1323.1466361092484 509.52657734988304 1331.3464710598014 512.5736459266745Q1339.5463060103543 515.5959415882077 1348.1177346897844 515.5959415882077L1348.1177346897844 515.5959415882077Q1354.5339197417275 515.5959415882077 1357.5809883185188 513.6388812827887Q1360.6032839800523 511.68182097736974 1360.6032839800523 508.28793158695964L1360.6032839800523 508.28793158695964Q1360.6032839800523 505.240863010168 1358.2746299457563 503.8288068404354Q1355.9707488267186 502.39197775544426 1351.3382136733853 501.6735632129487L1351.3382136733853 501.6735632129487L1342.7667849939553 500.261507043216Q1327.6057608557726 497.75944260211077 1319.4059259052196 490.72393466870585Q1311.2060909546667 483.6636538200425 1311.2060909546667 471.7231086654609L1311.2060909546667 471.7231086654609Q1311.2060909546667 464.0435049353359 1315.021119904471 457.62731988339266Q1318.8609217695334 451.2111348314495 1326.9864379743112 447.2722413053531Q1335.0871812638302 443.35812069451515 1348.1177346897844 443.35812069451515L1348.1177346897844 443.35812069451515Q1360.9501047936706 443.35812069451515 1371.0326813038673 446.6529184238914Q1381.1152578140636 449.9477161532676 1386.1193866962744 453.515015950487L1386.1193866962744 453.515015950487L1378.7866037797676 472.6149336147658Q1375.9377185250437 470.6578733093468 1371.2060917106764 469.12195256332177Q1366.4992378115676 467.61080473255527 1361.1482881157385 466.7189797832504Q1355.7973384199095 465.82715483394554 1350.9666199445082 465.82715483394554L1350.9666199445082 465.82715483394554Q1339.7444893324223 465.82715483394554 1339.7444893324223 471.3515149365839L1339.7444893324223 471.3515149365839Q1339.7444893324223 474.0269897844984 1341.8749600446504 475.7363209373327Q1344.0054307568785 477.4208791749086 1346.6809056047932 477.79247290378555L1346.6809056047932 477.79247290378555L1357.5809883185188 479.5761228023953Q1375.5908977114254 482.4250080571191 1382.3539035769868 489.3861972447486Q1389.141682357807 496.32261351711963 1389.141682357807 507.02451290877775L1389.141682357807 507.02451290877775Q1389.141682357807 515.4225311813984 1385.4009721537786 522.6314495216126Q1381.6602619497498 529.8651407770852 1373.4356540839385 534.3242655236095Q1365.2358191333856 538.7833902701336 1351.6850344870036 538.7833902701336ZM1478.324177288292 535.2160904729143L1446.2184791133172 535.2160904729143L1456.9203785049754 421.78091150438956L1492.5933764771694 421.78091150438956L1515.9542355659046 485.10048290503363L1516.4992397015908 487.2309536172619L1516.8460605152095 485.10048290503363L1541.4703382821267 421.78091150438956L1577.1433362543203 421.78091150438956L1586.061585747369 535.2160904729143L1553.9558875723947 535.2160904729143L1550.3885877751754 466.5455693764411L1549.8435836394888 463.52327371490804L1549.4967628258705 463.52327371490804L1548.6049378765656 466.5455693764411L1527.2011390932494 524.5141910812561L1505.7973403099327 524.5141910812561L1484.2201311198073 466.5455693764411L1483.5017165773115 463.52327371490804L1482.9567124416253 463.52327371490804L1482.4364812211975 466.5455693764411L1478.324177288292 535.2160904729143ZM1689.6866902735405 526.1244305730565L1667.5644769477285 544.4811607795813L1656.3423463356426 530.9303761331994Q1647.944328063022 536.1079154222191 1635.4587787727542 536.1079154222191L1635.4587787727542 536.1079154222191Q1618.8856984648392 536.1079154222191 1609.5958552429133 527.4621679970138Q1600.3307849362463 518.8164205718085 1600.3307849362463 504.72063178974025L1600.3307849362463 504.72063178974025Q1600.3307849362463 491.8634887705954 1608.183799073181 484.82798083719047Q1616.012040294857 477.79247290378555 1630.99965402623 477.79247290378555L1630.99965402623 477.79247290378555L1652.9484569452325 477.79247290378555L1652.9484569452325 474.9188147338033Q1652.9484569452325 469.76604836004196 1648.3159217918992 467.1648922579028Q1643.658613723307 464.58850907102214 1635.1119579591355 464.58850907102214L1635.1119579591355 464.58850907102214Q1628.4975895851244 464.58850907102214 1622.898910736711 466.0996569017887Q1617.275458973039 467.61080473255527 1612.097919684019 470.6578733093468L1612.097919684019 470.6578733093468L1605.1367304963892 449.9477161532676Q1611.9245092772094 446.2070059492389 1620.297754634572 444.5224477116631Q1628.6957729071923 442.8131165588288 1637.0690182645544 442.8131165588288L1637.0690182645544 442.8131165588288Q1657.7544025053753 442.8131165588288 1669.5215372531475 451.6570473061019Q1681.313444916178 460.4762051381165 1681.313444916178 475.2904084626803L1681.313444916178 475.2904084626803L1681.313444916178 515.9427624018263L1689.6866902735405 526.1244305730565ZM1639.9179035192783 513.9857020964073L1639.9179035192783 513.9857020964073Q1646.7056823000985 513.9857020964073 1649.901388368441 509.6256690109169Q1653.1218673520416 505.240863010168 1653.1218673520416 500.78173826364383L1653.1218673520416 500.78173826364383L1653.1218673520416 495.8023822966918L1639.9179035192783 495.8023822966918Q1634.3935434166401 495.8023822966918 1631.6189769076914 498.1062634157293Q1628.8691833140015 500.4349174500253 1628.8691833140015 504.54722138293096L1628.8691833140015 504.54722138293096Q1628.8691833140015 509.0063461294552 1631.9905706365685 511.483637655302Q1635.1119579591355 513.9857020964073 1639.9179035192783 513.9857020964073ZM1730.7106379415636 535.2160904729143L1696.821289867979 535.2160904729143L1733.0392919758592 489.7330180583671L1698.4315293597797 443.9031248302014L1730.165633805877 443.9031248302014L1750.157376419461 471.00469412296536L1769.7775253041673 443.9031248302014L1802.0566338859512 443.9031248302014L1768.5141066259857 489.18801392268085L1802.4034546995695 535.2160904729143L1769.4059315752902 535.2160904729143L1750.5041972330796 508.4613419937689L1730.7106379415636 535.2160904729143ZM1866.0946198290908 535.2160904729143L1830.5950322637063 535.2160904729143L1811.3217041926182 443.9031248302014L1839.8601025703733 443.9031248302014L1850.7601852840994 504.72063178974025L1867.704859320891 445.6867747288111L1896.2432576986462 445.6867747288111L1913.1879317354383 504.72063178974025L1924.063241533906 443.9031248302014L1952.6016399116606 443.9031248302014L1933.328311840573 535.2160904729143L1897.828724275188 535.2160904729143L1882.320879323387 480.26976442963235L1881.9740585097688 478.4861145310227L1881.6024647808918 480.26976442963235L1866.0946198290908 535.2160904729143ZM2010.1986678875992 536.2813258290284L2010.1986678875992 536.2813258290284Q1995.9294686987214 536.2813258290284 1984.9798401544786 530.5835553195808Q1974.0054386949773 524.8610118948747 1967.7626640498434 513.9857020964073Q1961.5198894047094 503.1103922979398 1961.5198894047094 487.77595775294816L1961.5198894047094 487.77595775294816Q1961.5198894047094 466.1987485628226 1973.5595262203246 454.5059325608257Q1985.59916303594 442.8131165588288 2005.9377264631426 442.8131165588288L2005.9377264631426 442.8131165588288Q2020.20692565202 442.8131165588288 2029.1994938908438 448.26315791569175Q2038.216835044926 453.71319927255473 2042.502549384641 462.8048591724125Q2046.7634908090977 471.8965190722702 2046.7634908090977 482.9452392775469L2046.7634908090977 482.9452392775469Q2046.7634908090977 486.8841328036433 2046.317578334445 491.0707554823244Q2045.8716658597928 495.2573781610055 2044.9798409104878 499.36968209391114L2044.9798409104878 499.36968209391114L1989.5132836467783 499.36968209391114Q1990.4051085960832 508.4613419937689 1997.0937957158694 511.68182097736974Q2003.7824828356556 514.8775270457121 2012.5273219218948 514.8775270457121L2012.5273219218948 514.8775270457121Q2019.8353319231428 514.8775270457121 2025.9046961614672 513.1929688081362Q2031.974060399792 511.483637655302 2035.7147706038209 508.6347524005781L2035.7147706038209 508.6347524005781L2043.394374333946 526.471251386675Q2038.9352495874218 530.2119615907037 2030.0913188401487 533.2590301674953Q2021.272161008134 536.2813258290284 2010.1986678875992 536.2813258290284ZM1989.5132836467783 481.35977270100494L1989.5132836467783 481.35977270100494L2021.7923922285618 481.35977270100494Q2021.7923922285618 474.2251731065662 2017.7791799566899 469.3201358853895Q2013.765967684818 464.4150986642129 2005.7395431410746 464.4150986642129L2005.7395431410746 464.4150986642129Q1998.0847123262079 464.4150986642129 1993.7989979864933 469.0476338175464Q1989.5132836467783 473.6801689708799 1989.5132836467783 481.35977270100494ZM2091.35473827434 535.2160904729143L2062.816339896585 535.2160904729143L2062.816339896585 419.2788470632843L2091.35473827434 419.2788470632843L2091.35473827434 535.2160904729143ZM2137.7296356381917 535.2160904729143L2109.1912372604365 535.2160904729143L2109.1912372604365 419.2788470632843L2137.7296356381917 419.2788470632843L2137.7296356381917 535.2160904729143Z " fill="#4ade80" transform="matrix(0.40931274431603903,0,0,0.4093127443160389,0,97.68536837114654)"/></g></svg>